HIERARCHY
ROOT hip
{
  OFFSET 0 0 0
  CHANNELS 6 Xposition Yposition Zposition Zrotation Yrotation Xrotation
  JOINT abdomen
  {
    OFFSET 0 20.6881 -0.73152
    CHANNELS 3 Zrotation Xrotation Yrotation
    JOINT chest
    {
      OFFSET 0 11.7043 -0.48768
      CHANNELS 3 Zrotation Xrotation Yrotation
      JOINT neck
      {
        OFFSET 0 22.1894 -2.19456
        CHANNELS 3 Zrotation Xrotation Yrotation
        JOINT head
        {
          OFFSET -0.24384 7.07133 1.2192
          CHANNELS 3 Zrotation Xrotation Yrotation
          JOINT leftEye
          {
            OFFSET 4.14528 8.04674 8.04672
            CHANNELS 3 Zrotation Xrotation Yrotation
            End Site
            {
              OFFSET 1 0 0
            }
          }
          JOINT rightEye
          {
            OFFSET -3.6576 8.04674 8.04672
            CHANNELS 3 Zrotation Xrotation Yrotation
            End Site
            {
              OFFSET 1 0 0
            }
          }
        }
      }
      JOINT rCollar
      {
        OFFSET -2.68224 19.2634 -4.8768
        CHANNELS 3 Zrotation Xrotation Yrotation
        JOINT rShldr
        {
          OFFSET -8.77824 -1.95073 1.46304
          CHANNELS 3 Zrotation Xrotation Yrotation
          JOINT rForeArm
          {
            OFFSET -28.1742 -1.7115 0.48768
            CHANNELS 3 Zrotation Xrotation Yrotation
            JOINT rHand
            {
              OFFSET -22.5879 0.773209 7.07136
              CHANNELS 3 Zrotation Xrotation Yrotation
              JOINT rThumb1
              {
                OFFSET -1.2192 -0.487915 3.41376
                CHANNELS 3 Zrotation Xrotation Yrotation
                JOINT rThumb2
                {
                  OFFSET -3.37035 -0.52449 3.41376
                  CHANNELS 3 Zrotation Xrotation Yrotation
                  End Site
                  {
                    OFFSET -1.78271 -1.18214 1.43049
                  }
                }
              }
              JOINT rIndex1
              {
                OFFSET -7.75947 0.938293 5.60832
                CHANNELS 3 Zrotation Xrotation Yrotation
                JOINT rIndex2
                {
                  OFFSET -2.54057 -0.884171 1.56538
                  CHANNELS 3 Zrotation Xrotation Yrotation
                  End Site
                  {
                    OFFSET -1.62519 -0.234802 1.16502
                  }
                }
              }
              JOINT rMid1
              {
                OFFSET -8.24714 1.18213 3.41376
                CHANNELS 3 Zrotation Xrotation Yrotation
                JOINT rMid2
                {
                  OFFSET -3.10165 -0.590103 1.0647
                  CHANNELS 3 Zrotation Xrotation Yrotation
                  End Site
                  {
                    OFFSET -2.48547 -0.328903 0.83742
                  }
                }
              }
              JOINT rRing1
              {
                OFFSET -8.82822 0.546677 1.51678
                CHANNELS 3 Zrotation Xrotation Yrotation
                JOINT rRing2
                {
                  OFFSET -2.60934 -0.819778 -0.0198488
                  CHANNELS 3 Zrotation Xrotation Yrotation
                  End Site
                  {
                    OFFSET -2.33842 -0.294052 0.168128
                  }
                }
              }
              JOINT rPinky1
              {
                OFFSET -8.27202 -0.0477905 -0.4584
                CHANNELS 3 Zrotation Xrotation Yrotation
                JOINT rPinky2
                {
                  OFFSET -1.82734 -0.647385 -0.700984
                  CHANNELS 3 Zrotation Xrotation Yrotation
                  End Site
                  {
                    OFFSET -1.69225 -0.51767 -0.607171
                  }
                }
              }
            }
          }
        }
      }
      JOINT lCollar
      {
        OFFSET 2.68224 19.2634 -4.8768
        CHANNELS 3 Zrotation Xrotation Yrotation
        JOINT lShldr
        {
          OFFSET 8.77824 -1.95073 1.46304
          CHANNELS 3 Zrotation Xrotation Yrotation
          JOINT lForeArm
          {
            OFFSET 28.1742 -1.7115 0.48768
            CHANNELS 3 Zrotation Xrotation Yrotation
            JOINT lHand
            {
              OFFSET 22.5879 0.773209 7.07136
              CHANNELS 3 Zrotation Xrotation Yrotation
              JOINT lThumb1
              {
                OFFSET 1.2192 -0.487915 3.41376
                CHANNELS 3 Zrotation Xrotation Yrotation
                JOINT lThumb2
                {
                  OFFSET 3.37035 -0.52449 3.41376
                  CHANNELS 3 Zrotation Xrotation Yrotation
                  End Site
                  {
                    OFFSET 1.78271 -1.18214 1.43049
                  }
                }
              }
              JOINT lIndex1
              {
                OFFSET 7.75947 0.938293 5.60832
                CHANNELS 3 Zrotation Xrotation Yrotation
                JOINT lIndex2
                {
                  OFFSET 2.54057 -0.884171 1.56538
                  CHANNELS 3 Zrotation Xrotation Yrotation
                  End Site
                  {
                    OFFSET 1.62519 -0.234802 1.16502
                  }
                }
              }
              JOINT lMid1
              {
                OFFSET 8.24714 1.18213 3.41376
                CHANNELS 3 Zrotation Xrotation Yrotation
                JOINT lMid2
                {
                  OFFSET 3.10165 -0.590103 1.0647
                  CHANNELS 3 Zrotation Xrotation Yrotation
                  End Site
                  {
                    OFFSET 2.48547 -0.328903 0.83742
                  }
                }
              }
              JOINT lRing1
              {
                OFFSET 8.82822 0.546677 1.51678
                CHANNELS 3 Zrotation Xrotation Yrotation
                JOINT lRing2
                {
                  OFFSET 2.60934 -0.819778 -0.0198488
                  CHANNELS 3 Zrotation Xrotation Yrotation
                  End Site
                  {
                    OFFSET 2.33842 -0.294052 0.168128
                  }
                }
              }
              JOINT lPinky1
              {
                OFFSET 8.27202 -0.0477905 -0.4584
                CHANNELS 3 Zrotation Xrotation Yrotation
                JOINT lPinky2
                {
                  OFFSET 1.82734 -0.647385 -0.700984
                  CHANNELS 3 Zrotation Xrotation Yrotation
                  End Site
                  {
                    OFFSET 1.69225 -0.51767 -0.607171
                  }
                }
              }
            }
          }
        }
      }
    }
  }
  JOINT rButtock
  {
    OFFSET -8.77824 4.35084 1.2192
    CHANNELS 3 Zrotation Xrotation Yrotation
    JOINT rThigh
    {
      OFFSET 0 -1.70687 -2.19456
      CHANNELS 3 Zrotation Xrotation Yrotation
      JOINT rShin
      {
        OFFSET 0 -36.8199 0.73152
        CHANNELS 3 Zrotation Xrotation Yrotation
        JOINT rFoot
        {
          OFFSET 0.73152 -45.1104 -5.12064
          CHANNELS 3 Zrotation Xrotation Yrotation
          End Site
          {
            OFFSET -1.1221 -3.69964 12.103
          }
        }
      }
    }
  }
  JOINT lButtock
  {
    OFFSET 8.77824 4.35084 1.2192
    CHANNELS 3 Zrotation Xrotation Yrotation
    JOINT lThigh
    {
      OFFSET 0 -1.70687 -2.19456
      CHANNELS 3 Zrotation Xrotation Yrotation
      JOINT lShin
      {
        OFFSET 0 -36.8199 0.73152
        CHANNELS 3 Zrotation Xrotation Yrotation
        JOINT lFoot
        {
          OFFSET -0.73152 -45.1104 -5.12064
          CHANNELS 3 Zrotation Xrotation Yrotation
          End Site
          {
            OFFSET 1.1221 -3.69964 12.103
          }
        }
      }
    }
  }
}
MOTION
Frames:	7
Frame Time:	0.03333
-19.1296 56.7419 -104.30699999999999 5.0909 23.864700000000003 6.680499999999999 -11.5147 13.622 0.41488 5.36072 -8.93965 0.26894000000000007 -7.251109999999999 16.756499999999996 -9.455430000000002 14.0746 -30.6361 -15.0916 -0.0 0.0 0.0 -0.0 0.0 0.0 -3.243690000000001e-14 -3.25024e-14 3.5469299999999994e-13 44.8037 26.6079 7.1678700000000015 -28.1964 -31.9512 70.3755 -0.0207311 -4.10573 -0.578023 2.91164e-10 3.4573099999999995e-09 -9.086420000000001e-10 5.05954e-10 5.979260000000001e-09 -1.56722e-09 2.91172e-10 3.457300000000001e-09 -9.086550000000001e-10 7.730909999999999 5.47488 0.417314 2.91161e-10 3.457300000000001e-09 -9.086369999999998e-10 2.90554 0.965183 0.102902 2.91169e-10 3.4573099999999995e-09 -9.08644e-10 10.278600000000003 0.731801 0.0259123 2.91159e-10 3.4573099999999995e-09 -9.086399999999999e-10 2.22167 -0.733487 -0.20892000000000002 -3.23565e-14 -3.251199999999999e-14 3.54483e-13 -45.8939 50.0887 -37.3413 28.3678 -37.5592 -79.647 1.0726500000000003 -28.037400000000005 4.29254 -2.16259e-10 -4.745539999999999e-10 7.93694e-10 -3.9481599999999995e-10 -5.97315e-10 1.3664500000000002e-09 -2.16262e-10 -4.74544e-10 7.936979999999999e-10 -7.730909999999999 5.47488 -0.417314 -2.1626000000000006e-10 -4.74544e-10 7.93689e-10 -2.90554 0.965183 -0.102902 -2.16266e-10 -4.74547e-10 7.93693e-10 -10.278600000000003 0.731801 -0.0259123 -2.16255e-10 -4.74557e-10 7.93683e-10 -2.22167 -0.733487 0.20892000000000002 -2.03217e-16 0.0 -3.88251e-19 -58.0343 -58.84899999999999 -58.7335 -3.6051800000000003 76.7596 4.03091 -0.800493 -2.3816 -1.61506 2.03217e-16 0.0 3.88251e-19 11.4256 -0.056004700000000004 2.13547 0.05808269999999999 46.5395 -3.06994 16.7851 -23.2315 38.7596
-18.9416 56.7076 -104.195 5.8149 24.4211 7.6011 -11.612300000000001 13.6914 -0.359684 5.462809999999999 -9.08915 0.07253959999999998 -7.10289 16.680400000000002 -9.37358 14.0885 -31.5329 -14.8422 -0.0 0.0 0.0 -0.0 0.0 0.0 4.43428e-14 -4.60889e-14 -1.05164e-13 44.9327 26.089899999999997 6.02258 -28.1764 -31.796400000000006 70.1285 -0.020041200000000002 -4.03747 -0.56838 -8.57016e-11 -2.1224800000000003e-09 2.2002200000000002e-10 -1.48124e-10 -3.65485e-09 3.77025e-10 -8.569969999999998e-11 -2.12249e-09 2.2002099999999994e-10 7.730909999999999 5.47488 0.417314 -8.57079e-11 -2.1225e-09 2.20032e-10 2.90554 0.965183 0.102902 -8.5699e-11 -2.12247e-09 2.2002699999999996e-10 10.278600000000003 0.731801 0.0259123 -8.57079e-11 -2.12247e-09 2.20033e-10 2.22167 -0.733487 -0.20892000000000002 4.440500000000001e-14 -4.60843e-14 -1.05406e-13 -43.1254 48.6121 -42.2157 28.4036 -36.9729 -78.6425 1.03161 -27.5482 4.204459999999999 -2.79502e-10 1.64457e-09 1.62102e-10 -4.86056e-10 2.8930400000000006e-09 2.71763e-10 -2.7950600000000007e-10 1.64457e-09 1.62106e-10 -7.730909999999999 5.47488 -0.417314 -2.7950399999999995e-10 1.64457e-09 1.62102e-10 -2.90554 0.965183 -0.102902 -2.79508e-10 1.6445600000000002e-09 1.62104e-10 -10.278600000000003 0.731801 -0.0259123 -2.79498e-10 1.64457e-09 1.62095e-10 -2.22167 -0.733487 0.20892000000000002 -2.03217e-16 0.0 -3.88251e-19 -60.769200000000005 -58.430500000000016 -63.33550000000001 -3.79146 77.2824 4.221120000000001 -1.7726100000000002 -1.4108 -7.51477 2.03217e-16 0.0 3.88251e-19 10.729500000000002 -0.331496 1.3805100000000001 0.04782460000000001 45.873000000000005 -3.03326 16.6425 -22.7935 38.95269999999999
-18.7208 56.6771 -103.92400000000002 6.7161 24.7422 8.7851 -11.939000000000002 13.404000000000002 -1.2314 5.64424 -9.22736 -0.141749 -6.88507 16.503500000000003 -9.209779999999999 13.6636 -32.1898 -14.567999999999998 -0.0 0.0 0.0 -0.0 0.0 0.0 1.00669e-13 -1.20219e-13 -2.10643e-13 45.0764 25.7194 4.96645 -28.1419 -31.533900000000003 69.6996 -0.0194435 -3.9722599999999995 -0.559173 3.028340000000001e-11 -7.86843e-10 3.38277e-10 5.20277e-11 -1.35281e-09 5.81422e-10 3.028459999999999e-11 -7.86861e-10 3.3827200000000003e-10 7.730909999999999 5.47488 0.417314 3.02769e-11 -7.86863e-10 3.38284e-10 2.90554 0.965183 0.102902 3.02848e-11 -7.86838e-10 3.38281e-10 10.278600000000003 0.731801 0.0259123 3.027750000000001e-11 -7.86839e-10 3.3828899999999997e-10 2.22167 -0.733487 -0.20892000000000002 1.00654e-13 -1.20211e-13 -2.10885e-13 -40.9282 47.04 -46.5315 28.4195 -36.505700000000004 -77.8638 0.961617 -26.701 4.05315 -2.4257500000000006e-10 1.9528100000000004e-09 2.34307e-10 -4.20736e-10 3.3800100000000006e-09 3.96234e-10 -2.4257900000000005e-10 1.9528e-09 2.34311e-10 -7.730909999999999 5.47488 -0.417314 -2.4257699999999993e-10 1.9528e-09 2.34306e-10 -2.90554 0.965183 -0.102902 -2.4258e-10 1.95279e-09 2.34307e-10 -10.278600000000003 0.731801 -0.0259123 -2.4256900000000006e-10 1.95282e-09 2.34301e-10 -2.22167 -0.733487 0.20892000000000002 -2.03217e-16 0.0 -3.88251e-19 -63.1156 -58.17120000000001 -67.1314 -3.8287299999999997 77.44929999999998 4.31215 -2.68905 -1.50563 -12.5741 2.03217e-16 0.0 3.88251e-19 9.75869 -0.292586 0.823294 0.0254291 44.7166 -2.99285 16.3563 -22.326299999999996 39.0172
-18.507 56.6994 -103.44 7.7268 24.716000000000005 9.9711 -12.5128 12.759199999999998 -2.19621 5.90502 -9.35424 -0.37393 -6.595930000000001 16.2255 -8.96467 12.7968 -32.60600000000001 -14.2684 -0.0 0.0 0.0 -0.0 0.0 0.0 1.36541e-13 -2.54893e-13 3.8256e-14 45.246199999999995 25.4994 3.99415 -28.0872 -31.157000000000007 69.0958 -0.018935000000000004 -3.9100899999999994 -0.5504000000000001 6.391190000000001e-10 7.46421e-09 -5.538790000000002e-10 1.10641e-09 1.28854e-08 -9.540270000000001e-10 6.39125e-10 7.464200000000002e-09 -5.53902e-10 7.730909999999999 5.47488 0.417314 6.39115e-10 7.464200000000002e-09 -5.53882e-10 2.90554 0.965183 0.102902 6.3912e-10 7.46421e-09 -5.538799999999998e-10 10.278600000000003 0.731801 0.0259123 6.39115e-10 7.46421e-09 -5.53873e-10 2.22167 -0.733487 -0.20892000000000002 1.36389e-13 -2.54892e-13 3.80459e-14 -39.2541 45.4222 -50.3391 28.429 -36.1686 -77.2911 0.868907 -25.4952 3.8424999999999994 -1.05477e-10 4.50156e-10 1.01031e-09 -1.98857e-10 8.635799999999999e-10 1.73986e-09 -1.0548e-10 4.50167e-10 1.01031e-09 -7.730909999999999 5.47488 -0.417314 -1.0547799999999999e-10 4.5016799999999994e-10 1.0103e-09 -2.90554 0.965183 -0.102902 -1.05482e-10 4.501649999999999e-10 1.0103e-09 -10.278600000000003 0.731801 -0.0259123 -1.0547e-10 4.5018599999999994e-10 1.0103e-09 -2.22167 -0.733487 0.20892000000000002 -2.03217e-16 0.0 -3.88251e-19 -65.17370000000001 -58.152100000000004 -70.24949999999998 -3.70539 77.2604 4.29244 -3.82578 -2.62447 -16.8034 2.03217e-16 0.0 3.88251e-19 8.521889999999999 0.06088120000000001 0.4638479999999999 -0.00741476 43.0703 -2.95141 15.9295 -21.8284 38.9551
-18.3758 56.82900000000001 -102.756 8.3391 24.1066 10.828300000000002 -12.6565 12.1467 -3.0872499999999996 5.94689 -9.499729999999998 -0.602627 -6.299150000000001 15.7706 -8.5815 11.562 -32.6392 -13.8161 -0.0 0.0 0.0 -0.0 0.0 0.0 -2.57833e-14 -1.88373e-14 2.7947700000000007e-13 45.5687 25.467000000000002 2.92783 -28.0327 -30.810500000000005 68.54320000000001 -0.0148517 -3.51192 -0.494176 -1.73553e-10 6.42343e-09 -9.141469999999999e-10 -2.98375e-10 1.10922e-08 -1.57636e-09 -1.73546e-10 6.42343e-09 -9.141750000000001e-10 7.730909999999999 5.47488 0.417314 -1.73555e-10 6.42343e-09 -9.14155e-10 2.90554 0.965183 0.102902 -1.73551e-10 6.42343e-09 -9.14152e-10 10.278600000000003 0.731801 0.0259123 -1.73557e-10 6.42344e-09 -9.14146e-10 2.22167 -0.733487 -0.20892000000000002 -2.5942e-14 -1.88336e-14 2.7928e-13 -38.1446 43.7882 -53.2259 28.4299 -36.041700000000006 -77.0839 0.812315 -24.7004 3.70658 3.67928e-10 -1.4046399999999998e-09 6.94156e-10 6.22048e-10 -2.34746e-09 1.20464e-09 3.67922e-10 -1.40463e-09 6.94158e-10 -7.730909999999999 5.47488 -0.417314 3.67928e-10 -1.40463e-09 6.941490000000001e-10 -2.90554 0.965183 -0.102902 3.67922e-10 -1.40463e-09 6.941490000000001e-10 -10.278600000000003 0.731801 -0.0259123 3.6793499999999993e-10 -1.40461e-09 6.94145e-10 -2.22167 -0.733487 0.20892000000000002 -2.03217e-16 0.0 -3.88251e-19 -65.5339 -58.412 -70.7028 -3.57988 77.067 4.266940000000001 -4.59111 -3.5871000000000004 -18.8948 2.03217e-16 0.0 3.88251e-19 7.355209999999999 1.06608 0.315499 -0.0413323 41.2242 -2.88469 15.4828 -21.3788 38.8182
-18.2986 57.0012 -101.93699999999998 8.797 22.9374 11.3226 -12.366099999999998 11.5674 -3.90565 5.76967 -9.66382 -0.827879 -5.98754 15.1372 -8.0628 9.94855 -32.2861 -13.2166 -0.0 0.0 0.0 -0.0 0.0 0.0 -3.86303e-13 5.87947e-13 5.130190000000001e-13 46.0555 25.6207 1.76249 -27.980600000000003 -30.496299999999998 68.0387 -0.00917378 -2.7777200000000004 -0.390676 -2.4077299999999995e-09 -3.90916e-09 -7.42528e-10 -4.16232e-09 -6.73226e-09 -1.28557e-09 -2.4077299999999995e-09 -3.90916e-09 -7.42545e-10 7.730909999999999 5.47488 0.417314 -2.4077299999999995e-09 -3.909170000000001e-09 -7.42535e-10 2.90554 0.965183 0.102902 -2.4077299999999995e-09 -3.909170000000001e-09 -7.425339999999998e-10 10.278600000000003 0.731801 0.0259123 -2.40774e-09 -3.90916e-09 -7.425290000000001e-10 2.22167 -0.733487 -0.20892000000000002 -3.8634000000000005e-13 5.87964e-13 5.12818e-13 -37.5151 42.2193 -55.2979 28.4283 -36.1302 -77.23369999999998 0.7852429999999999 -24.3172 3.6413700000000007 1.1776400000000003e-09 -3.6115899999999995e-09 -7.141520000000001e-10 2.04198e-09 -6.25311e-09 -1.20944e-09 1.17763e-09 -3.6116000000000002e-09 -7.141520000000001e-10 -7.730909999999999 5.47488 -0.417314 1.1776400000000003e-09 -3.6116000000000002e-09 -7.14159e-10 -2.90554 0.965183 -0.102902 1.17763e-09 -3.6116000000000002e-09 -7.14156e-10 -10.278600000000003 0.731801 -0.0259123 1.1776500000000002e-09 -3.61158e-09 -7.14164e-10 -2.22167 -0.733487 0.20892000000000002 -2.03217e-16 0.0 -3.88251e-19 -64.13999999999999 -58.9901 -68.4381 -3.45248 76.8691 4.23593 -4.85899 -4.44069 -18.8417 2.03217e-16 0.0 3.88251e-19 6.25262 2.7229700000000006 0.378499 -0.0722012 39.1779 -2.79622 15.0177 -20.9761 38.606100000000005
-18.2025 57.0995 -101.00899999999999 8.9628 21.8327 11.395400000000002 -11.4558 11.0784 -4.776050000000001 5.64858 -9.85073 -1.04468 -5.964409999999999 14.4784 -7.35278 9.039130000000002 -31.886200000000002 -12.020099999999998 -0.0 0.0 0.0 -0.0 0.0 0.0 -3.80765e-13 6.79526e-13 3.34026e-13 46.5381 25.862599999999997 0.4576209999999999 -27.9603 -30.382 67.86069999999998 -0.0074478800000000005 -2.43917 -0.34302 -2.85065e-09 -1.3830200000000003e-08 3.5402100000000004e-10 -4.92967e-09 -2.38456e-08 6.06315e-10 -2.85064e-09 -1.3830200000000003e-08 3.5401e-10 7.730909999999999 5.47488 0.417314 -2.85065e-09 -1.3830200000000003e-08 3.54016e-10 2.90554 0.965183 0.102902 -2.85064e-09 -1.3830200000000003e-08 3.54018e-10 10.278600000000003 0.731801 0.0259123 -2.85065e-09 -1.3830200000000003e-08 3.5402400000000007e-10 2.22167 -0.733487 -0.20892000000000002 -3.80766e-13 6.79541e-13 3.33839e-13 -37.5567 40.4776 -56.5133 28.4244 -36.3972 -77.67250000000001 0.813198 -24.732699999999998 3.7114599999999998 1.18707e-09 -3.78469e-09 -1.2517499999999997e-09 2.06847e-09 -6.59523e-09 -2.13657e-09 1.18706e-09 -3.784699999999999e-09 -1.2517499999999997e-09 -7.730909999999999 5.47488 -0.417314 1.18707e-09 -3.78472e-09 -1.2517499999999997e-09 -2.90554 0.965183 -0.102902 1.18707e-09 -3.78472e-09 -1.2517499999999997e-09 -10.278600000000003 0.731801 -0.0259123 1.18708e-09 -3.784699999999999e-09 -1.25176e-09 -2.22167 -0.733487 0.20892000000000002 -2.03217e-16 0.0 -3.88251e-19 -62.0402 -59.8507 -65.7083 -3.3981 76.792 4.23865 -5.08811 -5.216629999999999 -18.7476 2.03217e-16 0.0 3.88251e-19 5.354280000000001 4.143770000000001 0.444484 -0.0782482 38.4061 -2.75123 14.048 -19.6979 38.4021
